Coordinates
version=1
nRows=5
nColumns=40
inDegrees=yes

Units are S.I. units (second, meters, Newtons, ...)
Angles are in degrees.

endheader
time	pelvis_tilt	pelvis_list	pelvis_rotation	pelvis_tx	pelvis_ty	pelvis_tz	hip_flexion_r	hip_adduction_r	hip_rotation_r	knee_angle_r	knee_angle_r_beta	ankle_angle_r	subtalar_angle_r	mtp_angle_r	hip_flexion_l	hip_adduction_l	hip_rotation_l	knee_angle_l	knee_angle_l_beta	ankle_angle_l	subtalar_angle_l	mtp_angle_l	lumbar_extension	lumbar_bending	lumbar_rotation	arm_flex_r	arm_add_r	arm_rot_r	elbow_flex_r	pro_sup_r	wrist_flex_r	wrist_dev_r	arm_flex_l	arm_add_l	arm_rot_l	elbow_flex_l	pro_sup_l	wrist_flex_l	wrist_dev_l
     47.03000000	     -3.40158458	     -5.59511357	     -1.32612440	      0.98443484	      0.91902571	      0.52114285	     17.15424507	      4.66505879	    -11.45595843	     25.82188965	     25.82188965	     14.05627738	     -3.85297400	     -2.10377840	     18.29515925	    -15.16710149	     -2.24473907	     59.78888401	     59.78888401	     16.75829914	    -19.25684725	     18.66896657	    -10.80690790	      7.57894391	      0.72197870	      2.91711758	    -13.47462908	    -13.19078396	     23.57099648	     45.55452830	      0.00000000	      0.00000000	     19.95844573	    -12.20762693	    -11.34443487	     55.03224225	     45.47623442	      0.00000000	      0.00000000
     47.04985714	     -3.14842686	     -5.55956603	     -0.54064527	      0.98284622	      0.91800252	      0.52230900	     16.98470310	      4.71259654	    -11.35729373	     26.56560753	     26.56560753	     14.55025492	     -5.28355405	     -2.15950826	     20.30362521	    -15.01935477	     -1.50897243	     61.00846937	     61.00846937	     17.08741827	    -19.36080690	     18.79897280	    -11.02096327	      7.54742668	      0.74192733	      5.13935757	    -13.49841062	    -13.14844707	     24.47035768	     45.54931800	      0.00000000	      0.00000000	     17.73238758	    -11.43545954	    -10.63376145	     53.12036802	     45.39785832	      0.00000000	      0.00000000
     47.06971429	     -2.77932137	     -5.52423198	      0.25713305	      0.98128437	      0.91719065	      0.52349328	     16.62874152	      4.86064270	    -11.02198521	     27.18595542	     27.18595542	     15.02560862	     -7.12225194	     -1.91280679	     22.18611417	    -14.77669271	     -0.74859614	     62.00249944	     62.00249944	     17.96584738	    -19.41696957	     20.69243641	    -11.28586107	      7.51546001	      1.04235526	      7.52732470	    -13.62960246	    -12.86851941	     24.76571093	     45.60468905	      0.00000000	      0.00000000	     16.21724033	    -10.82203596	     -8.52136751	     49.33922572	     45.26232591	      0.00000000	      0.00000000
     47.08957143	     -2.48861580	     -5.43430136	      1.09020323	      0.97965305	      0.91616624	      0.52448808	     16.38429985	      4.86477546	    -10.97412716	     27.89014173	     27.89014173	     15.53687364	     -8.49376466	     -1.88481092	     24.04342173	    -14.44714614	     -0.10397759	     62.52914019	     62.52914019	     18.26789280	    -19.48324799	     21.04601612	    -11.52790468	      7.39949391	      0.83143367	      9.96605666	    -13.59212776	    -12.85145364	     25.93755986	     45.59421802	      0.00000000	      0.00000000	     13.98114079	    -10.26232945	     -7.61590112	     46.89775428	     45.17000745	      0.00000000	      0.00000000
     47.10942857	     -2.05193920	     -5.35252463	      1.88167643	      0.97807919	      0.91558073	      0.52528167	     15.81972592	      4.82640681	    -11.19205954	     28.31998231	     28.31998231	     16.01027107	     -9.18270240	     -1.97164286	     25.50983272	    -14.08589906	      0.40962832	     62.44640496	     62.44640496	     18.45154058	    -19.53957737	     21.06100811	    -12.03264557	      7.27095694	      1.64425504	     11.91438654	    -14.00340205	    -12.85328757	     26.71818105	     45.58221247	      0.00000000	      0.00000000	     11.95743490	     -9.03112034	     -7.15729025	     45.71091693	     45.09996339	      0.00000000	      0.00000000
